<svg width="30" height="30" viewBox="0 0 30 30" fill="none" xmlns="http://www.w3.org/2000/svg">
<path fill-rule="evenodd" clip-rule="evenodd" d="M21.6816 1C21.6816 0.447715 21.2338 0 20.6816 0C20.1293 0 19.6816 0.447715 19.6816 1V2.70847H10.8006V1C10.8006 0.447715 10.3528 0 9.80056 0C9.24828 0 8.80056 0.447715 8.80056 1V2.70847H5.72022C3.6697 2.70847 2 4.36471 2 6.41692V25.3761C2 27.4283 3.6697 29.0845 5.72022 29.0845H24.7618C26.8123 29.0845 28.482 27.4283 28.482 25.3761V6.41692C28.482 4.36471 26.8123 2.70847 24.7618 2.70847H21.6816V1ZM8.80056 6.4169V4.70847H5.72022C4.76608 4.70847 4 5.47745 4 6.41692V25.3761C4 26.3155 4.76608 27.0845 5.72022 27.0845H24.7618C25.7159 27.0845 26.482 26.3155 26.482 25.3761V6.41692C26.482 5.47745 25.7159 4.70847 24.7618 4.70847H21.6816V6.4169C21.6816 6.96918 21.2338 7.4169 20.6816 7.4169C20.1293 7.4169 19.6816 6.96918 19.6816 6.4169V4.70847H10.8006V6.4169C10.8006 6.96918 10.3528 7.4169 9.80056 7.4169C9.24828 7.4169 8.80056 6.96918 8.80056 6.4169ZM22.8538 12.4864C23.2207 12.0736 23.1835 11.4415 22.7708 11.0746C22.358 10.7077 21.7259 10.7449 21.359 11.1577L17.2139 15.8209L13.8268 19.6314L9.39141 14.499C9.0303 14.0812 8.3988 14.0352 7.98094 14.3963C7.56307 14.7574 7.51707 15.3889 7.87819 15.8068L12.6866 21.3707C13.2793 22.0566 14.3403 22.064 14.9426 21.3865L18.7087 17.1496L22.8538 12.4864Z" fill="white"/>
</svg>
